<?xml version="1.0" encoding="UTF-8"?>
<!DOCTYPE svg PUBLIC "-//W3C//DTD SVG 1.1//EN" "http://www.w3.org/Graphics/SVG/1.1/DTD/svg11.dtd">
<svg xmlns="http://www.w3.org/2000/svg" version="1.1" width="224px" height="225px" style="shape-rendering:geometricPrecision; text-rendering:geometricPrecision; image-rendering:optimizeQuality; fill-rule:evenodd; clip-rule:evenodd" xmlns:xlink="http://www.w3.org/1999/xlink">
<g><path style="opacity:1" fill="#fcfcfc" d="M -0.5,-0.5 C 74.1667,-0.5 148.833,-0.5 223.5,-0.5C 223.5,74.5 223.5,149.5 223.5,224.5C 148.833,224.5 74.1667,224.5 -0.5,224.5C -0.5,149.5 -0.5,74.5 -0.5,-0.5 Z"/></g>
<g><path style="opacity:1" fill="#121440" d="M 139.5,25.5 C 150.176,25.4957 153.343,30.4957 149,40.5C 146.005,43.2648 142.505,44.0981 138.5,43C 136.667,42.5 135.5,41.3333 135,39.5C 133.309,33.6102 134.809,28.9436 139.5,25.5 Z"/></g>
<g><path style="opacity:1" fill="#eeeef1" d="M 140.5,27.5 C 146.326,27.157 148.826,29.8236 148,35.5C 145.77,42.0768 142.104,43.0768 137,38.5C 135.882,34.0767 137.049,30.41 140.5,27.5 Z"/></g>
<g><path style="opacity:1" fill="#1c1b45" d="M 79.5,26.5 C 80.3864,25.2241 81.3864,25.2241 82.5,26.5C 92.9181,44.3797 90.0847,46.7131 74,33.5C 75.1522,37.4998 76.6522,41.4998 78.5,45.5C 78.1667,45.8333 77.8333,46.1667 77.5,46.5C 64.931,28.2403 67.2643,25.5737 84.5,38.5C 84.8333,38.3333 85.1667,38.1667 85.5,38C 83.5805,34.0349 81.5805,30.2015 79.5,26.5 Z"/></g>
<g><path style="opacity:1" fill="#1c1c46" d="M 128.5,36.5 C 126.721,38.3435 124.388,39.0102 121.5,38.5C 119.292,37.977 117.792,36.6437 117,34.5C 114.963,23.279 119.463,18.9457 130.5,21.5C 130.649,22.552 130.483,23.552 130,24.5C 123.818,21.8041 119.985,23.6375 118.5,30C 119.302,35.8787 122.636,38.0453 128.5,36.5 Z"/></g>
<g><path style="opacity:1" fill="#181943" d="M 98.5,20.5 C 99.3764,20.3691 100.043,20.7025 100.5,21.5C 98.2933,22.6348 95.9599,23.3015 93.5,23.5C 93.8333,25.5 94.1667,27.5 94.5,29.5C 96.8954,28.6365 99.2287,28.6365 101.5,29.5C 96.6617,29.9912 94.6617,32.6578 95.5,37.5C 98.5274,36.4911 101.527,36.4911 104.5,37.5C 100.928,38.7063 97.2618,39.373 93.5,39.5C 92.8841,33.7552 91.8841,28.0886 90.5,22.5C 93.3725,22.1977 96.0392,21.531 98.5,20.5 Z"/></g>
<g><path style="opacity:1" fill="#9796a7" d="M 128.5,36.5 C 129.404,37.209 129.737,38.209 129.5,39.5C 126.615,39.8064 123.948,39.4731 121.5,38.5C 124.388,39.0102 126.721,38.3435 128.5,36.5 Z"/></g>
<g><path style="opacity:1" fill="#24234b" d="M 159.5,33.5 C 160.675,33.281 161.675,33.6143 162.5,34.5C 160.527,37.6397 158.36,40.6397 156,43.5C 154.67,48.4977 156.504,50.6643 161.5,50C 164.026,46.974 166.36,43.8073 168.5,40.5C 169.5,39.1667 170.5,39.1667 171.5,40.5C 169.667,43.5 167.833,46.5 166,49.5C 159.653,55.4549 155.153,54.2883 152.5,46C 154.598,41.7266 156.932,37.5599 159.5,33.5 Z"/></g>
<g><path style="opacity:1" fill="#1e1e47" d="M 59.5,35.5 C 60.8221,35.33 61.9887,35.6634 63,36.5C 66.03,40.6983 68.8633,45.0316 71.5,49.5C 71.1667,49.8333 70.8333,50.1667 70.5,50.5C 66.0938,46.0117 62.4271,41.0117 59.5,35.5 Z"/></g>
<g><path style="opacity:1" fill="#181943" d="M 177.5,46.5 C 183.077,49.4545 184.41,53.6212 181.5,59C 179.295,60.427 177.128,60.927 175,60.5C 174.489,62.8782 173.822,65.2115 173,67.5C 172.056,66.737 171.556,65.737 171.5,64.5C 174.813,56.1354 173.146,54.8021 166.5,60.5C 166.167,60 165.833,59.5 165.5,59C 169.275,54.6135 173.275,50.4469 177.5,46.5 Z"/></g>
<g><path style="opacity:1" fill="#e4e4e8" d="M 176.5,50.5 C 181.493,50.997 182.493,53.1637 179.5,57C 173.17,57.1751 172.17,55.0084 176.5,50.5 Z"/></g>
<g><path style="opacity:1" fill="#1a1b44" d="M 47.5,45.5 C 52.1111,48.4421 56.1111,52.1087 59.5,56.5C 61.4829,55.018 63.3163,53.3513 65,51.5C 65.5,52 66,52.5 66.5,53C 64.5,55 62.5,57 60.5,59C 59.5,59.6667 58.5,59.6667 57.5,59C 54.2019,54.7002 50.5352,50.7002 46.5,47C 47.056,46.6174 47.3893,46.1174 47.5,45.5 Z"/></g>
<g><path style="opacity:1" fill="#1d1d46" d="M 39.5,53.5 C 45.069,56.2936 50.4023,59.6269 55.5,63.5C 55.2907,64.086 54.9574,64.586 54.5,65C 48.7963,65.4559 43.1296,65.4559 37.5,65C 41.5667,67.3608 45.2333,70.1941 48.5,73.5C 48,73.8333 47.5,74.1667 47,74.5C 42.0966,71.2959 37.2633,67.9625 32.5,64.5C 32.7093,63.914 33.0426,63.414 33.5,63C 35.3333,62.8333 37.1667,62.6667 39,62.5C 53.0488,65.1241 53.8821,63.2907 41.5,57C 40.1772,56.1841 39.5106,55.0174 39.5,53.5 Z"/></g>
<g><path style="opacity:1" fill="#171842" d="M 186.5,62.5 C 191.651,62.8141 194.151,65.4808 194,70.5C 193.667,70.8333 193.333,71.1667 193,71.5C 193.036,67.5342 191.203,65.7009 187.5,66C 186.707,69.4106 186.207,72.9106 186,76.5C 180.509,78.7041 177.009,76.8708 175.5,71C 176.009,69.8315 176.842,68.9981 178,68.5C 177.489,72.9751 179.323,75.1418 183.5,75C 183.944,70.6295 184.944,66.4629 186.5,62.5 Z"/></g>
<g><path style="opacity:1" fill="#181943" d="M 197.5,77.5 C 200.266,79.5096 201.933,82.3429 202.5,86C 202.167,86.5 201.833,87 201.5,87.5C 200.402,85.3683 199.402,83.2016 198.5,81C 196.893,81.0187 195.226,81.1854 193.5,81.5C 194.205,84.2443 194.205,86.911 193.5,89.5C 192.232,87.6957 191.565,85.6957 191.5,83.5C 189.5,83.8333 187.5,84.1667 185.5,84.5C 185.756,86.9372 186.423,89.2706 187.5,91.5C 187.167,91.8333 186.833,92.1667 186.5,92.5C 184.229,89.8408 183.062,86.8408 183,83.5C 187.965,81.5943 192.798,79.5943 197.5,77.5 Z"/></g>
<g><path style="opacity:1" fill="#1d1c46" d="M 28.5,74.5 C 36.0247,72.7586 41.0247,75.4253 43.5,82.5C 40.3,92.3152 34.6333,93.9819 26.5,87.5C 23.547,82.5999 24.2137,78.2666 28.5,74.5 Z"/></g>
<g><path style="opacity:1" fill="#f1f1f3" d="M 30.5,76.5 C 38.8866,76.507 41.5532,80.1736 38.5,87.5C 30.1848,89.94 26.6848,86.94 28,78.5C 28.9947,77.9341 29.828,77.2674 30.5,76.5 Z"/></g>
<g><path style="opacity:1" fill="#fe673f" d="M 109.5,68.5 C 118.479,68.7584 122.645,73.425 122,82.5C 127.916,85.8742 133.75,89.3742 139.5,93C 142.031,91.5642 144.864,90.3976 148,89.5C 155.76,90.5871 158.76,94.9205 157,102.5C 155.67,106.007 153.17,107.673 149.5,107.5C 149.336,110.187 149.503,112.854 150,115.5C 157.479,118.202 159.479,123.202 156,130.5C 153.86,132.487 151.36,133.82 148.5,134.5C 145.59,133.027 142.59,132.194 139.5,132C 134.66,134.919 129.994,138.086 125.5,141.5C 127.136,151.031 123.136,155.198 113.5,154C 112.069,153.535 110.903,152.701 110,151.5C 108.982,148.361 108.149,145.195 107.5,142C 103.167,139.833 98.8333,137.667 94.5,135.5C 85.8328,141.989 79.8328,140.155 76.5,130C 79.029,121.066 84.3623,118.733 92.5,123C 94.8303,126.279 96.1636,129.946 96.5,134C 100.745,136.039 104.912,138.206 109,140.5C 113.852,135.594 119.019,135.26 124.5,139.5C 129.471,136.362 134.304,133.028 139,129.5C 138.119,122.925 140.619,118.258 146.5,115.5C 147.48,112.914 147.813,110.247 147.5,107.5C 144.901,107.451 142.734,106.451 141,104.5C 139.964,101.029 139.131,97.5293 138.5,94C 132.252,90.6265 126.085,87.1265 120,83.5C 113.21,89.2547 107.21,88.588 102,81.5C 97.1507,82.5873 92.3174,83.754 87.5,85C 82.3656,89.1329 77.5323,93.6329 73,98.5C 71.562,92.4742 70.062,86.4742 68.5,80.5C 74.3158,80.6251 80.1492,81.6251 86,83.5C 91.4921,82.0036 96.9921,80.6702 102.5,79.5C 102.813,74.5257 105.146,70.859 109.5,68.5 Z"/></g>
<g><path style="opacity:1" fill="#fff9f8" d="M 145.5,91.5 C 153.489,90.9893 156.655,94.656 155,102.5C 150.667,107.833 146.333,107.833 142,102.5C 140.662,97.9597 141.829,94.293 145.5,91.5 Z"/></g>
<g><path style="opacity:1" fill="#fff9f8" d="M 70.5,82.5 C 70.56,81.9569 70.8933,81.6236 71.5,81.5C 75.4943,82.6655 79.4943,83.8321 83.5,85C 80.3333,88.1667 77.1667,91.3333 74,94.5C 73.1194,90.2915 71.9527,86.2915 70.5,82.5 Z"/></g>
<g><path style="opacity:1" fill="#fff5f3" d="M 109.5,70.5 C 116.657,70.155 119.824,73.4884 119,80.5C 114.333,87.1667 109.667,87.1667 105,80.5C 104.333,78.8333 104.333,77.1667 105,75.5C 106.366,73.6383 107.866,71.9717 109.5,70.5 Z"/></g>
<g><path style="opacity:1" fill="#1e1e45" d="M 26.5,107.5 C 36.8176,107.322 39.1509,111.489 33.5,120C 27.4772,121.809 23.8105,119.643 22.5,113.5C 23.4316,111.235 24.7649,109.235 26.5,107.5 Z"/></g>
<g><path style="opacity:1" fill="#201f46" d="M 191.5,107.5 C 201.191,106.428 204.191,110.261 200.5,119C 191.763,122.586 187.93,119.752 189,110.5C 190.045,109.627 190.878,108.627 191.5,107.5 Z"/></g>
<g><path style="opacity:1" fill="#fff9f7" d="M 145.5,117.5 C 153.489,116.989 156.655,120.656 155,128.5C 150.667,133.833 146.333,133.833 142,128.5C 140.662,123.96 141.829,120.293 145.5,117.5 Z"/></g>
<g><path style="opacity:1" fill="#ffe6e0" d="M 83.5,122.5 C 90.657,122.155 93.8237,125.488 93,132.5C 88.3333,139.167 83.6667,139.167 79,132.5C 78.0769,128.017 79.5769,124.683 83.5,122.5 Z"/></g>
<g><path style="opacity:1" fill="#fe663d" d="M 82.5,125.5 C 90.2721,124.266 92.6055,127.099 89.5,134C 81.7798,136.099 79.4465,133.265 82.5,125.5 Z"/></g>
<g><path style="opacity:1" fill="#ffe7e1" d="M 84.5,126.5 C 89.4928,126.997 90.4928,129.164 87.5,133C 82.3823,132.824 81.3823,130.658 84.5,126.5 Z"/></g>
<g><path style="opacity:1" fill="#fffbfa" d="M 114.5,138.5 C 123.549,138.701 126.215,142.868 122.5,151C 113.249,154.416 109.415,151.25 111,141.5C 112.145,140.364 113.312,139.364 114.5,138.5 Z"/></g>
<g><path style="opacity:1" fill="#1c1c46" d="M 180.5,133.5 C 181.552,133.351 182.552,133.517 183.5,134C 181.772,136.384 181.439,138.884 182.5,141.5C 183.768,142.428 185.101,142.595 186.5,142C 187.329,140.184 188.163,138.351 189,136.5C 189.692,137.025 190.192,137.692 190.5,138.5C 187.273,143.331 188.606,145.664 194.5,145.5C 194.447,142.939 195.447,140.939 197.5,139.5C 197.833,139.833 198.167,140.167 198.5,140.5C 197.391,142.385 196.557,144.385 196,146.5C 195.481,147.516 194.647,148.182 193.5,148.5C 187.582,147.541 182.582,145.041 178.5,141C 179.479,138.567 180.145,136.067 180.5,133.5 Z"/></g>
<g><path style="opacity:1" fill="#1b1a45" d="M 34.5,135.5 C 44.7887,133.367 48.9554,137.367 47,147.5C 41.4779,153.538 35.8113,153.872 30,148.5C 28.627,146.305 28.2937,143.971 29,141.5C 30.3597,138.977 32.193,136.977 34.5,135.5 Z"/></g>
<g><path style="opacity:1" fill="#f2f2f4" d="M 36.5,137.5 C 42.8057,136.707 45.639,139.374 45,145.5C 41.9502,149.13 38.1169,150.297 33.5,149C 31.718,146.757 31.218,144.257 32,141.5C 33.6667,140.267 35.1667,138.933 36.5,137.5 Z"/></g>
<g><path style="opacity:1" fill="#201f47" d="M 176.5,146.5 C 178.892,147.742 178.725,149.075 176,150.5C 175.506,152.134 175.34,153.801 175.5,155.5C 179.088,154.632 182.588,153.298 186,151.5C 190.637,153.662 191.637,156.996 189,161.5C 187.534,163.325 185.701,163.825 183.5,163C 185.692,161.641 187.359,159.808 188.5,157.5C 188.023,156.522 187.357,155.689 186.5,155C 183.902,155.126 181.569,156.126 179.5,158C 175.771,158.783 173.437,157.283 172.5,153.5C 173.071,150.687 174.404,148.354 176.5,146.5 Z"/></g>
<g><path style="opacity:1" fill="#181943" d="M 50.5,150.5 C 51.8799,150.962 52.5466,151.962 52.5,153.5C 50.7764,157.948 48.7764,162.281 46.5,166.5C 47.0016,167.521 47.6683,167.688 48.5,167C 51.3603,164.64 54.3603,162.473 57.5,160.5C 58.3081,160.808 58.9747,161.308 59.5,162C 54.6383,165.695 49.6383,169.195 44.5,172.5C 43.7132,171.758 43.0465,170.925 42.5,170C 45.1368,164.91 47.3035,159.743 49,154.5C 45.6134,157.553 41.9467,160.22 38,162.5C 37.5,162 37,161.5 36.5,161C 41.3504,157.637 46.0171,154.137 50.5,150.5 Z"/></g>
<g><path style="opacity:1" fill="#222049" d="M 167.5,159.5 C 172.975,159.976 175.642,162.976 175.5,168.5C 177.989,168.298 180.323,168.798 182.5,170C 178.837,170.544 175.17,171.21 171.5,172C 173.167,173.667 174.833,175.333 176.5,177C 175.975,177.692 175.308,178.192 174.5,178.5C 170.015,174.515 165.682,170.349 161.5,166C 163.706,163.963 165.706,161.797 167.5,159.5 Z"/></g>
<g><path style="opacity:1" fill="#ededf0" d="M 167.5,162.5 C 172.068,162.083 173.568,164.083 172,168.5C 171.333,169.167 170.667,169.833 170,170.5C 168.315,168.983 166.815,167.316 165.5,165.5C 166.193,164.482 166.859,163.482 167.5,162.5 Z"/></g>
<g><path style="opacity:1" fill="#202048" d="M 61.5,164.5 C 63.2252,164.843 63.7252,165.843 63,167.5C 59.4636,170.701 56.2969,174.201 53.5,178C 55,179.5 56.5,181 58,182.5C 58.6877,183.332 58.521,183.998 57.5,184.5C 54.9783,182.144 52.3116,179.977 49.5,178C 54.0793,173.926 58.0793,169.426 61.5,164.5 Z"/></g>
<g><path style="opacity:1" fill="#1c1c45" d="M 158.5,168.5 C 162.211,172.379 164.878,176.879 166.5,182C 165.018,188.824 161.185,190.658 155,187.5C 152.695,183.696 150.195,180.03 147.5,176.5C 148.365,175.417 149.365,175.251 150.5,176C 152.587,179.508 154.92,182.842 157.5,186C 161.181,187.314 163.514,186.147 164.5,182.5C 162.687,178.21 160.354,174.21 157.5,170.5C 157.863,169.817 158.196,169.15 158.5,168.5 Z"/></g>
<g><path style="opacity:1" fill="#1c1c45" d="M 72.5,173.5 C 73.2891,173.783 73.9558,174.283 74.5,175C 71,179.833 67.5,184.667 64,189.5C 62.7705,188.725 62.4372,187.725 63,186.5C 66.1759,182.137 69.3426,177.804 72.5,173.5 Z"/></g>
<g><path style="opacity:1" fill="#9090a1" d="M 102.5,184.5 C 103.5,184.5 104.5,184.5 105.5,184.5C 105.5,185.5 105.5,186.5 105.5,187.5C 103.901,187.768 102.568,187.434 101.5,186.5C 104.925,186.633 105.258,185.967 102.5,184.5 Z"/></g>
<g><path style="opacity:1" fill="#1a1a44" d="M 77.5,176.5 C 78.5832,176.539 79.5832,176.873 80.5,177.5C 81.8585,183.081 82.6918,188.748 83,194.5C 85.1556,190.189 87.3222,185.856 89.5,181.5C 90.3081,181.808 90.9747,182.308 91.5,183C 89.3031,188.564 86.4697,193.731 83,198.5C 82.228,198.355 81.5613,198.022 81,197.5C 80.7728,192.103 80.1062,186.769 79,181.5C 76.8289,185.842 74.6622,190.176 72.5,194.5C 71.6919,194.192 71.0253,193.692 70.5,193C 73.2567,187.656 75.59,182.156 77.5,176.5 Z"/></g>
<g><path style="opacity:1" fill="#222149" d="M 137.5,179.5 C 145.056,178.887 149.056,182.387 149.5,190C 148.569,197.003 144.569,199.67 137.5,198C 132.997,194.155 131.497,189.322 133,183.5C 134.397,181.93 135.897,180.596 137.5,179.5 Z"/></g>
<g><path style="opacity:1" fill="#f3f3f5" d="M 136.5,182.5 C 142.875,181.049 146.208,183.549 146.5,190C 146.151,195.09 143.485,196.757 138.5,195C 134.142,191.384 133.476,187.217 136.5,182.5 Z"/></g>
<g><path style="opacity:1" fill="#1b1b45" d="M 102.5,184.5 C 105.258,185.967 104.925,186.633 101.5,186.5C 99.8828,185.962 98.2161,185.629 96.5,185.5C 95.1397,190.75 97.1397,193.417 102.5,193.5C 99.9135,194.48 97.2469,194.813 94.5,194.5C 94.3398,196.199 94.5065,197.866 95,199.5C 97.5006,199.95 99.6672,200.95 101.5,202.5C 101.167,202.833 100.833,203.167 100.5,203.5C 97.5534,202.577 94.5534,201.911 91.5,201.5C 92.5,195.5 93.5,189.5 94.5,183.5C 97.1667,183.833 99.8333,184.167 102.5,184.5 Z"/></g>
<g><path style="opacity:1" fill="#1a1a44" d="M 119.5,184.5 C 122.572,184.183 125.572,184.516 128.5,185.5C 118.111,186.55 115.777,191.384 121.5,200C 123.899,200.711 126.232,200.544 128.5,199.5C 129.386,200.325 129.719,201.325 129.5,202.5C 118.898,204.397 114.398,200.064 116,189.5C 116.997,187.677 118.164,186.01 119.5,184.5 Z"/></g>
</svg>
