<?xml version="1.0" encoding="UTF-8"?>
<!DOCTYPE svg PUBLIC "-//W3C//DTD SVG 1.1//EN" "http://www.w3.org/Graphics/SVG/1.1/DTD/svg11.dtd">
<svg xmlns="http://www.w3.org/2000/svg" version="1.1" width="134px" height="143px" style="shape-rendering:geometricPrecision; text-rendering:geometricPrecision; image-rendering:optimizeQuality; fill-rule:evenodd; clip-rule:evenodd" xmlns:xlink="http://www.w3.org/1999/xlink">
<g><path style="opacity:1" fill="#e5e6e6" d="M -0.5,-0.5 C 44.1667,-0.5 88.8333,-0.5 133.5,-0.5C 133.5,47.1667 133.5,94.8333 133.5,142.5C 88.8333,142.5 44.1667,142.5 -0.5,142.5C -0.5,94.8333 -0.5,47.1667 -0.5,-0.5 Z"/></g>
<g><path style="opacity:1" fill="#0f1f45" d="M 34.5,64.5 C 33.8333,60.1667 33.1667,55.8333 32.5,51.5C 28.5768,50.4698 24.7434,49.1365 21,47.5C 20.1685,55.1883 20.3352,62.855 21.5,70.5C 24.762,72.6435 25.262,75.3102 23,78.5C 22.5006,83.8229 22.334,89.1563 22.5,94.5C 20.8333,94.5 19.1667,94.5 17.5,94.5C 17.6659,89.4889 17.4993,84.4889 17,79.5C 13.5684,76.1913 13.9017,73.1913 18,70.5C 18.4997,62.5069 18.6664,54.5069 18.5,46.5C 15.0534,46.1857 11.7201,45.3524 8.5,44C 28.3822,33.8921 48.3822,24.0588 68.5,14.5C 88.6178,24.0588 108.618,33.8921 128.5,44C 120.833,46.3333 113.167,48.6667 105.5,51C 104.857,55.7838 104.191,60.6171 103.5,65.5C 80.718,45.9499 57.718,45.6165 34.5,64.5 Z"/></g>
<g><path style="opacity:1" fill="#777b8b" d="M 32.5,51.5 C 33.1667,55.8333 33.8333,60.1667 34.5,64.5C 34.2172,65.2891 33.7172,65.9558 33,66.5C 32.5007,61.5111 32.3341,56.5111 32.5,51.5 Z"/></g>
<g><path style="opacity:1" fill="#f57f21" d="M 59.5,60.5 C 62.5719,60.1826 65.5719,60.5159 68.5,61.5C 76.6771,78.0092 89.3437,89.6759 106.5,96.5C 107.825,102.6 107.492,108.6 105.5,114.5C 79.5325,107.035 61.1992,90.8682 50.5,66C 50.6448,65.228 50.9781,64.5613 51.5,64C 54.3093,62.9066 56.976,61.7399 59.5,60.5 Z"/></g>
<g><path style="opacity:1" fill="#ed2423" d="M 77.5,62.5 C 77.7352,61.9033 78.2352,61.5699 79,61.5C 92,65.8322 101.167,74.3322 106.5,87C 94.0096,82.356 84.3429,74.1894 77.5,62.5 Z"/></g>
<g><path style="opacity:1" fill="#088d4a" d="M 42.5,69.5 C 54.6053,94.9165 73.9386,112.583 100.5,122.5C 96.3508,128.318 91.0174,132.652 84.5,135.5C 61.0337,125.296 43.367,108.962 31.5,86.5C 33.9173,79.9922 37.5839,74.3255 42.5,69.5 Z"/></g>
<g><path style="opacity:1" fill="#179cdf" d="M 29.5,100.5 C 40.4972,116.329 54.4972,128.829 71.5,138C 49.6286,138.965 35.7953,128.798 30,107.5C 29.5034,105.19 29.3367,102.857 29.5,100.5 Z"/></g>
</svg>
